<svg width="119" height="108" viewBox="0 0 119 108" fill="none" xmlns="http://www.w3.org/2000/svg">
<path fill-rule="evenodd" clip-rule="evenodd" d="M54.2793 94.5951L25.3417 77.9507C22.502 76.4384 20.9867 73.4147 20.9867 70.3906C20.9867 64.7864 20.9867 59.1857 20.9867 53.5815C20.9867 47.9776 20.9867 42.3766 20.9867 36.7725C20.9867 33.7485 22.502 30.7247 25.3417 29.2128L54.2793 12.568C54.8773 12.1867 54.8513 11.6216 54.2793 11.2402L40.093 3.10851L34.7948 0.0847841C34.4201 -0.10598 34.2295 0.0847841 33.8482 0.0847841L6.99446 15.7827C2.6394 18.2411 0 22.7838 0 27.7008C0 36.2961 0 44.9371 0 53.5815C0 62.2262 0 70.8674 0 79.4625C0 84.3795 2.6394 88.922 6.99446 91.3808L33.8482 107.079C34.2295 107.079 34.4201 107.269 34.7948 107.079L40.093 104.055L54.2793 95.9229C54.8513 95.5417 54.8773 94.9763 54.2793 94.5951Z" fill="#199096"/>
<path fill-rule="evenodd" clip-rule="evenodd" d="M64.0248 94.5951L92.9624 77.9507C95.8025 76.4384 97.3176 73.4147 97.3176 70.3906C97.3176 64.7864 97.3176 59.1857 97.3176 53.5815C97.3176 47.9776 97.3176 42.3766 97.3176 36.7725C97.3176 33.7485 95.8025 30.7247 92.9624 29.2128L64.0248 12.568C63.4266 12.1867 63.4528 11.6216 64.0248 11.2402L78.2111 3.10851L83.5095 0.0847841C83.8842 -0.10598 84.0748 0.0847841 84.4561 0.0847841L111.31 15.7827C115.665 18.2411 118.304 22.7838 118.304 27.7008C118.304 36.2961 118.304 44.9371 118.304 53.5815C118.304 62.2262 118.304 70.8674 118.304 79.4625C118.304 84.3795 115.665 88.922 111.31 91.3808L84.4561 107.079C84.0748 107.079 83.8842 107.269 83.5095 107.079L78.2111 104.055L64.0248 95.9229C63.4528 95.5417 63.4266 94.9763 64.0248 94.5951Z" fill="#199096"/>
</svg>
