<svg width="890" height="180" viewBox="0 0 890 180" fill="none" xmlns="http://www.w3.org/2000/svg">
<g clip-path="url(#clip0_103_58)">
<path fill-rule="evenodd" clip-rule="evenodd" d="M527.529 179.923C526.135 179.923 525.004 178.792 525.004 177.399V2.65203C525.004 1.25846 526.135 0.127686 527.529 0.127686C528.922 0.127686 530.054 1.25846 530.054 2.65203V177.399C530.054 178.792 528.922 179.923 527.529 179.923Z" fill="#0F2230"/>
<path fill-rule="evenodd" clip-rule="evenodd" d="M474.452 37.1146H403.406C402.116 37.1146 402.116 38.4063 402.116 38.4063V54.2687C402.116 55.748 403.406 55.748 403.406 55.748H427.391C428.866 55.748 428.866 57.0396 428.866 57.0396V142.837C428.866 144.319 430.346 144.319 430.346 144.319C430.346 144.319 446.402 144.319 447.513 144.319C448.812 144.319 449.174 143.392 449.174 142.656C449.174 142.291 449.174 57.0396 449.174 57.0396C449.174 55.748 450.649 55.748 450.649 55.748H474.452C475.744 55.748 475.744 54.2687 475.744 54.2687V38.4063C475.744 37.1146 474.452 37.1146 474.452 37.1146Z" fill="#0F2230"/>
<path fill-rule="evenodd" clip-rule="evenodd" d="M366.685 37.1113C351.557 37.1113 336.051 37.1113 322.4 37.1113C321.112 37.1113 321.112 38.4031 321.112 38.4031C321.112 140.441 321.112 142.84 321.112 142.84C321.112 144.323 322.4 144.323 322.4 144.323C322.4 144.323 338.642 144.323 340.118 144.323C341.407 144.323 341.59 143.034 341.59 143.034V105.383C341.59 103.907 342.882 103.907 342.882 103.907H366.318C381.268 103.907 394.553 91.1773 394.553 75.3081C394.553 73.829 394.553 65.7135 394.553 65.7135C394.553 49.8416 381.633 37.1113 366.685 37.1113ZM374.067 77.1521C374.067 81.3985 370.376 85.2705 365.946 85.2705H342.882C341.407 85.2705 341.407 83.7947 341.407 83.7947V57.0396C341.407 55.748 342.882 55.748 342.882 55.748H365.582C370.376 55.748 374.253 59.6231 374.253 64.238C374.253 66.082 374.067 74.9398 374.067 77.1521Z" fill="#0F2230"/>
<path fill-rule="evenodd" clip-rule="evenodd" d="M308.194 153.546C308.194 153.546 308.194 134.35 308.194 133.062C308.194 131.954 307.272 131.408 307.272 131.408L299.337 126.613C299.337 126.613 298.598 126.238 298.598 125.131V38.5906C298.598 38.5906 298.598 37.1146 297.124 37.1146H279.222C279.222 37.1146 277.934 37.1146 277.934 38.5906V124.21C277.934 124.21 277.934 125.495 276.454 125.495L258.371 125.683C249.88 125.683 245.082 118.3 244.899 112.765V38.5906C244.899 38.5906 244.899 37.1146 243.606 37.1146H225.712C225.712 37.1146 224.236 37.1146 224.236 38.5906V115.72C224.236 132.322 237.884 144.319 253.015 144.319C253.015 144.319 288.453 144.319 289.189 144.319C289.932 144.319 290.292 144.503 290.292 144.503L307.092 154.285C307.092 154.285 307.272 154.469 307.638 154.469C307.638 154.469 308.194 154.469 308.194 153.546Z" fill="#0F2230"/>
<path fill-rule="evenodd" clip-rule="evenodd" d="M162.858 34.4886L125.785 12.93C125.216 12.7395 124.654 12.93 124.654 13.6862V27.6816C124.654 28.0563 124.842 28.2467 125.036 28.4375L150.758 43.3797C156.05 46.4067 159.265 51.8892 159.265 57.9404C159.265 79.3149 159.265 100.69 159.265 122.067C159.265 128.115 156.05 133.598 150.758 136.628L125.036 151.563C124.842 151.754 124.654 151.952 124.654 152.326V166.315C124.654 167.077 125.216 167.268 125.785 167.077L162.858 145.516C169.099 141.92 172.886 135.3 172.886 128.115C172.886 102.767 172.886 77.2341 172.886 51.8892C172.886 44.7044 169.099 38.0811 162.858 34.4886Z" fill="#0F2230"/>
<path fill-rule="evenodd" clip-rule="evenodd" d="M164.784 173.056H166.23C166.808 173.056 167.249 173.056 167.535 172.764C167.68 172.616 167.821 172.326 167.821 172.037C167.821 171.896 167.821 171.607 167.68 171.462C167.535 171.318 167.39 171.176 167.249 171.176C166.95 171.025 166.66 171.025 166.085 171.025H164.784V173.056ZM163.778 176.958V170.161H166.085C166.95 170.161 167.535 170.161 167.821 170.298C168.258 170.446 168.54 170.591 168.689 171.025C168.981 171.318 168.981 171.607 168.981 172.037C168.981 172.475 168.83 172.912 168.54 173.345C168.107 173.631 167.68 173.917 167.098 173.917C167.249 174.065 167.535 174.065 167.68 174.21C167.962 174.496 168.258 174.933 168.689 175.655L169.56 176.958H168.107L167.535 175.952C167.098 175.078 166.66 174.496 166.374 174.348C166.23 174.065 165.941 174.065 165.503 174.065H164.784V176.958H163.778ZM166.519 168.129C165.658 168.129 164.784 168.415 163.913 168.859C163.048 169.293 162.322 169.874 161.891 170.736C161.457 171.607 161.162 172.475 161.162 173.487C161.162 174.348 161.457 175.222 161.891 176.092C162.322 176.958 163.048 177.54 163.913 178.115C164.784 178.553 165.658 178.841 166.519 178.841C167.39 178.841 168.258 178.553 169.126 178.115C169.99 177.54 170.717 176.958 171.15 176.092C171.584 175.222 171.873 174.348 171.873 173.487C171.873 172.475 171.584 171.607 171.15 170.736C170.717 169.874 169.99 169.293 169.126 168.859C168.258 168.415 167.39 168.129 166.519 168.129ZM166.519 167.12C167.535 167.12 168.689 167.41 169.701 167.837C170.717 168.415 171.443 169.293 172.018 170.298C172.597 171.318 172.886 172.326 172.886 173.487C172.886 174.496 172.597 175.655 172.018 176.671C171.443 177.687 170.717 178.407 169.701 178.986C168.689 179.565 167.68 179.857 166.519 179.857C165.359 179.857 164.346 179.565 163.337 178.986C162.322 178.407 161.602 177.687 161.02 176.671C160.442 175.655 160.149 174.496 160.149 173.487C160.149 172.326 160.442 171.318 161.02 170.298C161.602 169.293 162.322 168.415 163.337 167.837C164.346 167.41 165.503 167.12 166.519 167.12Z" fill="#0F2230"/>
<path fill-rule="evenodd" clip-rule="evenodd" d="M10.0281 34.4886L47.1008 12.93C47.6694 12.7395 48.2314 12.93 48.2314 13.6862V27.6816C48.2314 28.0563 48.0443 28.2467 47.8502 28.4375L22.1271 43.3797C16.8352 46.4067 13.6208 51.8892 13.6208 57.9404C13.6208 79.3149 13.6208 100.69 13.6208 122.067C13.6208 128.115 16.8352 133.598 22.1271 136.628L47.8502 151.563C48.0443 151.754 48.2314 151.952 48.2314 152.326V166.315C48.2314 167.077 47.6694 167.268 47.1008 167.077L10.0281 145.516C3.78643 141.92 0 135.3 0 128.115C0 102.767 0 77.2341 0 51.8892C0 44.7044 3.78643 38.0811 10.0281 34.4886Z" fill="#0F2230"/>
<path fill-rule="evenodd" clip-rule="evenodd" d="M81.4847 131.701L52.5471 115.056C49.7073 113.544 48.192 110.52 48.192 107.496C48.192 101.892 48.192 96.2914 48.192 90.6872C48.192 85.0833 48.192 79.4823 48.192 73.8783C48.192 70.8542 49.7073 67.8305 52.5471 66.3185L81.4847 49.6738C82.0827 49.2924 82.0566 48.7273 81.4847 48.3459L67.2983 40.2142L62.0001 37.1905C61.6254 36.9997 61.4348 37.1905 61.0535 37.1905L34.1998 52.8884C29.8447 55.3468 27.2053 59.8895 27.2053 64.8066C27.2053 73.4018 27.2053 82.0428 27.2053 90.6872C27.2053 99.3319 27.2053 107.973 27.2053 116.568C27.2053 121.485 29.8447 126.028 34.1998 128.486L61.0535 144.184C61.4348 144.184 61.6254 144.375 62.0001 144.184L67.2983 141.16L81.4847 133.029C82.0566 132.647 82.0827 132.082 81.4847 131.701Z" fill="#199096"/>
<path fill-rule="evenodd" clip-rule="evenodd" d="M91.2301 131.701L120.168 115.056C123.008 113.544 124.523 110.52 124.523 107.496C124.523 101.892 124.523 96.2914 124.523 90.6872C124.523 85.0833 124.523 79.4823 124.523 73.8783C124.523 70.8542 123.008 67.8305 120.168 66.3185L91.2301 49.6738C90.6319 49.2924 90.6582 48.7273 91.2301 48.3459L105.416 40.2142L110.715 37.1905C111.09 36.9997 111.28 37.1905 111.661 37.1905L138.515 52.8884C142.87 55.3468 145.509 59.8895 145.509 64.8066C145.509 73.4018 145.509 82.0428 145.509 90.6872C145.509 99.3319 145.509 107.973 145.509 116.568C145.509 121.485 142.87 126.028 138.515 128.486L111.661 144.184C111.28 144.184 111.09 144.375 110.715 144.184L105.416 141.16L91.2301 133.029C90.6582 132.647 90.6319 132.082 91.2301 131.701Z" fill="#199096"/>
<path fill-rule="evenodd" clip-rule="evenodd" d="M583.891 42.6728V78.3222C583.891 78.5851 583.677 78.7986 583.415 78.7986H578.804C578.54 78.7986 578.327 78.5851 578.327 78.3222V37.5913C578.327 37.3285 578.54 37.1146 578.804 37.1146H605.681C605.943 37.1146 606.156 37.3285 606.156 37.5913V41.7199C606.156 41.9827 605.943 42.1962 605.681 42.1962H584.368C584.106 42.1962 583.891 42.4099 583.891 42.6728Z" fill="#0F2230"/>
<path fill-rule="evenodd" clip-rule="evenodd" d="M633.701 44.1881C632.307 42.8603 630.522 42.1962 628.347 42.1962H618.234C617.97 42.1962 617.756 42.4099 617.756 42.6728V56.4152C617.756 56.6782 617.97 56.8919 618.234 56.8919H628.347C630.522 56.8919 632.307 56.251 633.701 54.9624C635.091 53.674 635.789 51.8729 635.789 49.5751C635.789 47.3171 635.091 45.5226 633.701 44.1881ZM640.475 54.019C639.929 55.4981 639.153 56.8228 638.144 58.0093C637.139 59.2057 635.909 60.1719 634.456 60.9182C633.007 61.6643 631.351 62.039 629.498 62.039H618.234C617.97 62.039 617.756 62.2527 617.756 62.5156V78.3222C617.756 78.5851 617.543 78.7986 617.281 78.7986H612.668C612.406 78.7986 612.192 78.5851 612.192 78.3222V37.5913C612.192 37.3285 612.406 37.1146 612.668 37.1146H629.498C631.512 37.1146 633.253 37.4893 634.729 38.2323C636.201 38.9817 637.422 39.9448 638.389 41.1411C639.358 42.321 640.085 43.6557 640.567 45.1281C641.047 46.6006 641.295 48.0831 641.295 49.5751C641.295 51.0642 641.02 52.5497 640.475 54.019Z" fill="#0F2230"/>
<path fill-rule="evenodd" clip-rule="evenodd" d="M661.268 74.3813C660.544 75.6301 659.799 76.6292 659.03 77.3724C658.261 78.1249 657.448 78.6376 656.58 78.9172C655.713 79.1931 654.793 79.3379 653.827 79.3379H649.709C649.445 79.3379 649.231 79.1244 649.231 78.8614V74.5522C649.231 74.2892 649.445 74.0755 649.709 74.0755H652.739C653.583 74.0755 654.362 73.8947 655.064 73.5333C655.776 73.1682 656.407 72.3828 656.972 71.17L657.294 70.2891C657.383 70.0425 657.383 69.6414 657.29 69.3951L645.343 37.5617C645.252 37.315 645.39 37.1146 645.652 37.1146H650.51C650.774 37.1146 651.059 37.315 651.151 37.5617L660.259 62.499C660.347 62.7457 660.492 62.9463 660.578 62.9463C660.66 62.9463 660.801 62.7457 660.894 62.499L670.06 37.5617C670.152 37.315 670.438 37.1146 670.702 37.1146H675.316C675.58 37.1146 675.716 37.315 675.622 37.5617L663.391 69.5989C662.704 71.5414 661.994 73.1289 661.268 74.3813Z" fill="#0F2230"/>
<path fill-rule="evenodd" clip-rule="evenodd" d="M707.296 78.3222V42.6728C707.296 42.4099 707.083 42.1962 706.821 42.1962H688.234C687.97 42.1962 687.757 42.4099 687.757 42.6728V78.3222C687.757 78.5851 687.543 78.7986 687.281 78.7986H682.668C682.406 78.7986 682.193 78.5851 682.193 78.3222V37.5913C682.193 37.3285 682.406 37.1146 682.668 37.1146H712.507C712.769 37.1146 712.984 37.3285 712.984 37.5913V78.3222C712.984 78.5851 712.769 78.7986 712.507 78.7986H707.774C707.512 78.7986 707.296 78.5851 707.296 78.3222Z" fill="#0F2230"/>
<path fill-rule="evenodd" clip-rule="evenodd" d="M746.658 78.3222V42.6728C746.658 42.4099 746.444 42.1962 746.18 42.1962H727.597C727.335 42.1962 727.12 42.4099 727.12 42.6728V78.3222C727.12 78.5851 726.906 78.7986 726.644 78.7986H722.033C721.769 78.7986 721.555 78.5851 721.555 78.3222V37.5913C721.555 37.3285 721.769 37.1146 722.033 37.1146H751.87C752.134 37.1146 752.347 37.3285 752.347 37.5913V78.3222C752.347 78.5851 752.134 78.7986 751.87 78.7986H747.135C746.871 78.7986 746.658 78.5851 746.658 78.3222Z" fill="#0F2230"/>
<path fill-rule="evenodd" clip-rule="evenodd" d="M776.052 45.1905L773.172 54.4133L769.99 63.8797C769.909 64.1294 770.053 64.3332 770.317 64.3332H782.375C782.639 64.3332 782.784 64.1294 782.702 63.8797L779.523 54.4133L776.587 45.1905C776.508 44.9407 776.388 44.737 776.318 44.737C776.25 44.737 776.131 44.9407 776.052 45.1905ZM787.716 78.3484L784.765 69.8684C784.676 69.6185 784.394 69.4181 784.13 69.4181H768.505C768.241 69.4181 767.96 69.6185 767.874 69.8684L764.975 78.3484C764.89 78.5984 764.608 78.7986 764.344 78.7986H759.49C759.226 78.7986 759.083 78.5984 759.17 78.3484L773.377 37.5649C773.464 37.315 773.748 37.1146 774.01 37.1146H778.682C778.944 37.1146 779.227 37.315 779.315 37.5649L793.592 78.3484C793.679 78.5984 793.534 78.7986 793.272 78.7986H788.351C788.089 78.7986 787.806 78.5984 787.716 78.3484Z" fill="#0F2230"/>
<path fill-rule="evenodd" clip-rule="evenodd" d="M578.084 143.784V103.053C578.084 102.79 578.297 102.576 578.561 102.576H583.176C583.438 102.576 583.651 102.79 583.651 103.053V120.069C583.651 120.332 583.866 120.545 584.129 120.545H590.128C590.768 120.545 591.455 120.486 592.179 120.365C592.908 120.239 593.625 119.967 594.324 119.546C595.034 119.125 595.692 118.511 596.293 117.702C596.898 116.894 597.428 115.809 597.868 114.432L601.532 103.03C601.612 102.78 601.89 102.576 602.154 102.576H606.529C606.791 102.576 606.943 102.78 606.863 103.033L603.25 114.734C602.607 116.789 601.778 118.511 600.773 119.875C599.879 121.091 598.879 121.939 597.772 122.429C597.529 122.534 597.529 122.669 597.772 122.761C599.294 123.346 600.495 124.292 601.374 125.597C602.345 127.027 603.133 128.772 603.738 130.823L607.594 143.803C607.672 144.056 607.519 144.26 607.255 144.26H602.397C602.135 144.26 601.86 144.056 601.789 143.803L598.295 131.796C597.884 130.426 597.398 129.308 596.809 128.44C596.225 127.576 595.594 126.919 594.903 126.471C594.219 126.031 593.492 125.725 592.728 125.568C591.962 125.403 591.196 125.325 590.43 125.325H584.129C583.866 125.325 583.651 125.538 583.651 125.801V143.784C583.651 144.046 583.438 144.26 583.176 144.26H578.561C578.297 144.26 578.084 144.046 578.084 143.784Z" fill="#0F2230"/>
<path fill-rule="evenodd" clip-rule="evenodd" d="M638.397 117.337C638.397 115.645 638.139 114.192 637.616 112.982C637.093 111.769 636.388 110.777 635.505 109.991C634.619 109.202 633.582 108.627 632.398 108.266C631.209 107.901 629.961 107.717 628.627 107.717C627.305 107.717 626.046 107.901 624.855 108.266C623.673 108.627 622.647 109.202 621.783 109.991C620.919 110.777 620.229 111.769 619.706 112.982C619.183 114.192 618.917 115.645 618.917 117.337V129.558C618.917 131.251 619.183 132.707 619.706 133.917C620.229 135.126 620.928 136.109 621.816 136.874C622.699 137.643 623.734 138.209 624.918 138.574C626.105 138.935 627.342 139.123 628.627 139.123C629.961 139.123 631.202 138.935 632.367 138.574C633.537 138.209 634.568 137.643 635.472 136.874C636.38 136.109 637.093 135.126 637.616 133.917C638.139 132.707 638.397 131.251 638.397 129.558V117.337ZM644.084 130.225C644.084 132.362 643.69 134.301 642.903 136.033C642.111 137.765 641.024 139.241 639.63 140.454C638.233 141.66 636.6 142.597 634.72 143.261C632.841 143.928 630.812 144.26 628.627 144.26C626.364 144.26 624.28 143.928 622.384 143.261C620.486 142.597 618.858 141.66 617.506 140.454C616.153 139.241 615.104 137.765 614.352 136.033C613.605 134.301 613.233 132.362 613.233 130.225V116.677C613.233 114.577 613.605 112.66 614.352 110.925C615.104 109.196 616.153 107.71 617.506 106.481C618.858 105.255 620.486 104.292 622.384 103.608C624.28 102.921 626.364 102.576 628.627 102.576C630.854 102.576 632.916 102.921 634.81 103.608C636.712 104.292 638.352 105.255 639.726 106.481C641.094 107.71 642.164 109.196 642.93 110.925C643.697 112.66 644.084 114.577 644.084 116.677V130.225Z" fill="#0F2230"/>
<path fill-rule="evenodd" clip-rule="evenodd" d="M671.927 130.215L676.867 119.576L684.947 103.007C685.066 102.767 685.37 102.576 685.634 102.576H689.82C690.084 102.576 690.297 102.79 690.297 103.053V143.784C690.297 144.046 690.084 144.26 689.82 144.26H685.209C684.947 144.26 684.733 144.046 684.733 143.784V116.361C684.733 116.098 684.667 115.885 684.585 115.885C684.499 115.885 684.342 116.079 684.23 116.315L680.617 123.934L673.814 137.663C673.699 137.9 673.391 138.091 673.127 138.091H669.902C669.64 138.091 669.327 137.9 669.208 137.667L662.774 125.082L658.441 116.312C658.325 116.075 658.165 115.885 658.079 115.885C658 115.885 657.932 116.098 657.932 116.361V143.784C657.932 144.046 657.719 144.26 657.455 144.26H652.84C652.578 144.26 652.363 144.046 652.363 143.784V103.053C652.363 102.79 652.578 102.576 652.84 102.576H657.208C657.472 102.576 657.78 102.767 657.895 103.004L666.099 119.576L671.158 130.219C671.27 130.455 671.445 130.649 671.543 130.649C671.644 130.649 671.815 130.455 671.927 130.215Z" fill="#0F2230"/>
<path fill-rule="evenodd" clip-rule="evenodd" d="M724.089 143.784V108.138C724.089 107.874 723.876 107.661 723.614 107.661H705.029C704.766 107.661 704.553 107.874 704.553 108.138V143.784C704.553 144.046 704.34 144.26 704.076 144.26H699.465C699.201 144.26 698.987 144.046 698.987 143.784V103.053C698.987 102.79 699.201 102.576 699.465 102.576H729.303C729.566 102.576 729.779 102.79 729.779 103.053V143.784C729.779 144.046 729.566 144.26 729.303 144.26H724.567C724.303 144.26 724.089 144.046 724.089 143.784Z" fill="#0F2230"/>
<path fill-rule="evenodd" clip-rule="evenodd" d="M753.484 110.652L750.606 119.875L747.42 129.348C747.338 129.598 747.483 129.801 747.745 129.801H759.808C760.071 129.801 760.216 129.598 760.133 129.348L756.951 119.875L754.017 110.652C753.938 110.402 753.816 110.198 753.748 110.198C753.681 110.198 753.563 110.402 753.484 110.652ZM765.147 143.81L762.195 135.333C762.106 135.083 761.823 134.883 761.56 134.883H745.93C745.668 134.883 745.385 135.087 745.301 135.333L742.407 143.81C742.321 144.06 742.04 144.26 741.776 144.26H736.922C736.659 144.26 736.514 144.06 736.604 143.81L750.805 103.026C750.894 102.777 751.178 102.576 751.44 102.576H756.11C756.374 102.576 756.656 102.777 756.745 103.026L771.013 143.81C771.102 144.06 770.957 144.26 770.695 144.26H765.781C765.517 144.26 765.236 144.06 765.147 143.81Z" fill="#0F2230"/>
<path fill-rule="evenodd" clip-rule="evenodd" d="M802.859 143.784V126.159C802.859 125.896 802.645 125.683 802.383 125.683H783.793C783.529 125.683 783.315 125.896 783.315 126.159V143.784C783.315 144.046 783.102 144.26 782.84 144.26H778.224C777.961 144.26 777.748 144.046 777.748 143.784V103.053C777.748 102.79 777.961 102.576 778.224 102.576H782.84C783.102 102.576 783.315 102.79 783.315 103.053V120.131C783.315 120.394 783.529 120.608 783.793 120.608H802.383C802.645 120.608 802.859 120.394 802.859 120.131V103.053C802.859 102.79 803.074 102.576 803.336 102.576H808.069C808.332 102.576 808.545 102.79 808.545 103.053V143.784C808.545 144.046 808.332 144.26 808.069 144.26H803.336C803.074 144.26 802.859 144.046 802.859 143.784Z" fill="#0F2230"/>
<path fill-rule="evenodd" clip-rule="evenodd" d="M842.919 112.354L837.123 121.637L822.804 143.859C822.659 144.079 822.33 144.26 822.068 144.26H817.76C817.496 144.26 817.282 144.046 817.282 143.784V103.053C817.282 102.79 817.496 102.576 817.76 102.576H822.374C822.636 102.576 822.85 102.79 822.85 103.053V133.986C822.85 134.248 822.946 134.462 823.061 134.462C823.178 134.462 823.39 134.281 823.531 134.061L828.599 126.11L843.521 102.977C843.666 102.757 843.995 102.576 844.257 102.576H848.684C848.948 102.576 849.161 102.79 849.161 103.053V143.784C849.161 144.046 848.948 144.26 848.684 144.26H844.073C843.811 144.26 843.598 144.046 843.598 143.784V112.427C843.598 112.164 843.501 111.95 843.386 111.95C843.269 111.95 843.061 112.131 842.919 112.354Z" fill="#0F2230"/>
<path fill-rule="evenodd" clip-rule="evenodd" d="M869.201 93.4286C869.264 93.6884 869.359 93.9545 869.485 94.2276C869.68 94.6779 869.967 95.0853 870.329 95.4733C870.691 95.851 871.135 96.1664 871.663 96.4065C872.179 96.65 872.768 96.7712 873.415 96.7712C874.139 96.7712 874.772 96.65 875.321 96.4065C875.867 96.1664 876.311 95.851 876.68 95.4733C877.05 95.0853 877.316 94.6779 877.498 94.2276C877.61 93.9545 877.689 93.6916 877.731 93.4354C877.776 93.1756 877.988 92.9587 878.25 92.9587H881.59C881.852 92.9587 882.046 93.1721 882.008 93.4354C881.911 94.1025 881.747 94.8029 881.521 95.5292C881.238 96.4329 880.768 97.2746 880.098 98.04C879.43 98.8095 878.566 99.4501 877.498 99.9759C876.43 100.502 875.066 100.758 873.415 100.758C871.761 100.758 870.382 100.502 869.271 99.9759C868.163 99.4501 867.273 98.8095 866.605 98.04C865.944 97.2746 865.454 96.4329 865.155 95.5292C864.912 94.8029 864.767 94.1058 864.722 93.4385C864.704 93.1756 864.919 92.9587 865.181 92.9587H868.643C868.906 92.9587 869.14 93.1721 869.201 93.4286ZM883.684 112.354L877.888 121.636L863.571 143.859C863.428 144.079 863.097 144.26 862.835 144.26H858.527C858.263 144.26 858.049 144.046 858.049 143.784V103.053C858.049 102.79 858.263 102.576 858.527 102.576H863.137C863.401 102.576 863.615 102.79 863.615 103.053V133.985C863.615 134.248 863.709 134.462 863.825 134.462C863.942 134.462 864.153 134.281 864.295 134.061L869.366 126.11L884.289 102.977C884.433 102.757 884.761 102.576 885.025 102.576H889.454C889.718 102.576 889.932 102.79 889.932 103.053V143.784C889.932 144.046 889.718 144.26 889.454 144.26H884.84C884.578 144.26 884.365 144.046 884.365 143.784V112.427C884.365 112.164 884.268 111.95 884.149 111.95C884.032 111.95 883.824 112.131 883.684 112.354Z" fill="#0F2230"/>
</g>
<defs>
<clipPath id="clip0_103_58">
<rect width="890" height="179.923" fill="white"/>
</clipPath>
</defs>
</svg>
